# xmcd
# Copyright (C) 1995-1998 Ti Kan
#
# Track frame offsets:
#       150
#       13157
#       27853
#       39567
#       50644
#       63920
#       75955
#       90727
#       103609
#       116629
#       126346
#       135203
#       145215
#
# Disc length: 2120 seconds
#
# Revision: 0
# Processed by: cddbd v1.5.2PL0 Copyright (c) Steve Scherf et al.
# Submitted via: CD-Transfer v1.0
#
DISCID=a708460d
DTITLE=Ensemble Osttirol - 
DYEAR=1900
DGENRE=
TTITLE0=Tiroler Leut'
TTITLE1=Mir san Leut' vom Land
TTITLE2=s' Landleben hat Gott geb'n
TTITLE3=Von gestern auf heut'
TTITLE4=Der alte Jäger
TTITLE5=Ja heut' isch Boarischzeit
TTITLE6=Ein Stückchen Heimat
TTITLE7=Mir san Tiroler
TTITLE8=Im Kuhstall is da Teufel los
TTITLE9=Die schönsten Stunden
TTITLE10=Zwei Harmonikas
TTITLE11=Verspielte Klarinetten
TTITLE12=Ade, ade, auf Wiederseh'n
EXTD=
EXTT0=
EXTT1=
EXTT2=
EXTT3=
EXTT4=
EXTT5=
EXTT6=
EXTT7=
EXTT8=
EXTT9=
EXTT10=
EXTT11=
EXTT12=
PLAYORDER=
